<?xml version="1.0" encoding="UTF-8" standalone="no"?>
<svg width="627px" height="632px" viewBox="0 0 627 632" version="1.1" xmlns="http://www.w3.org/2000/svg" xmlns:xlink="http://www.w3.org/1999/xlink" xmlns:sketch="http://www.bohemiancoding.com/sketch/ns">
    <!-- Generator: Sketch 3.3.1 (12002) - http://www.bohemiancoding.com/sketch -->
    <title>Muladhara</title>
    <desc>Created with Sketch.</desc>
    <defs>
        <linearGradient x1="100.427727%" y1="100.101278%" x2="-0.327987288%" y2="-0.327990376%" id="linearGradient-1">
            <stop stop-color="#FFF100" offset="0%"></stop>
            <stop stop-color="#FFCD00" stop-opacity="0.66101694" offset="50%"></stop>
            <stop stop-color="#FFDD00" offset="100%"></stop>
        </linearGradient>
    </defs>
    <g id="Page-1" stroke="none" stroke-width="1" fill="none" fill-rule="evenodd" sketch:type="MSPage">
        <g id="Muladhara" sketch:type="MSLayerGroup" transform="translate(2.000000, 2.000000)">
            <g id="Mandala" transform="translate(0.413816, 0.257430)">
                <path d="M450.720466,237.052914 C450.720466,237.052914 356.293353,216.373444 310.471022,216.61206 C264.648698,216.850553 175.78651,238.484953 175.78651,238.484953 C175.78651,238.484953 126.824345,161.493708 172.012614,108.63195 C218.165451,54.6418621 282.403973,62.7791783 310.471022,0.651795952 C337.146926,62.7791783 402.776674,54.6418621 448.929452,108.63195 C493.534168,160.811028 450.720335,237.052914 450.720335,237.052914 L450.720466,237.052914 L450.720466,237.052914 Z" id="top" stroke="#000000" stroke-width="1.81844345" fill="#D0011B" sketch:type="MSShapeGroup"></path>
                <path d="M171.371234,390.351502 C171.371234,390.351502 265.798348,411.030972 311.620678,410.792355 C357.443002,410.553863 446.305191,388.919463 446.305191,388.919463 C446.305191,388.919463 495.267356,465.910707 450.079087,518.772466 C403.92625,572.762554 339.687728,564.625237 311.620678,626.752649 C284.944775,564.625237 219.315027,572.762554 173.162248,518.772466 C128.557533,466.593387 171.371365,390.351502 171.371365,390.351502 L171.371234,390.351502 L171.371234,390.351502 Z" id="bottom" stroke="#000000" stroke-width="1.81844345" fill="#D0011B" sketch:type="MSShapeGroup"></path>
                <path d="M385.195148,455.87682 C385.195148,455.87682 405.874618,361.449707 405.636001,315.627376 C405.397509,269.805052 383.763109,180.942864 383.763109,180.942864 C383.763109,180.942864 460.754354,131.980699 513.616112,177.168968 C567.6062,223.321805 559.468884,287.560327 621.596259,315.627376 C559.468884,342.30328 567.6062,407.933028 513.616112,454.085806 C461.437034,498.690522 385.195148,455.876689 385.195148,455.876689 L385.195148,455.87682 L385.195148,455.87682 Z" id="right" stroke="#000000" stroke-width="1.81844345" fill="#D0011B" sketch:type="MSShapeGroup"></path>
                <path d="M236.896553,176.527596 C236.896553,176.527596 216.217083,270.954709 216.455699,316.77704 C216.694192,362.599363 238.328592,451.461552 238.328592,451.461552 C238.328592,451.461552 161.337347,500.423717 108.475589,455.235448 C54.4855009,409.082611 62.6228171,344.844089 0.495405689,316.77704 C62.6228171,290.101136 54.4855009,224.471388 108.475589,178.31861 C160.654667,133.713894 236.896553,176.527726 236.896553,176.527726 L236.896553,176.527596 L236.896553,176.527596 Z" id="left" stroke="#000000" stroke-width="1.81844345" fill="#D0011B" sketch:type="MSShapeGroup"></path>
                <path d="M525.708078,315.240134 C525.708078,428.272025 431.839045,519.902477 316.045728,519.902477 C200.252418,519.902477 106.383386,428.272025 106.383386,315.240134 C106.383386,202.208243 200.252418,110.577791 316.045728,110.577791 C431.839045,110.577791 525.708078,202.208243 525.708078,315.240134 L525.708078,315.240134 Z" id="circle" stroke="#000000" stroke-width="1.67623665" fill="#F68323" sketch:type="MSShapeGroup"></path>
                <rect id="rect" stroke="#FFFF00" stroke-width="2.23785925" fill="url(#linearGradient-1)" sketch:type="MSShapeGroup" x="182.07883" y="184.46335" width="257.93384" height="261.55356"></rect>
                <text id="लं" fill="#000000" sketch:type="MSTextLayer" font-family="Kohinoor Devanagari" font-size="245.071976" font-weight="normal">
                    <tspan x="223.09586" y="411.536531">लं</tspan>
                </text>
            </g>
            <g id="Letters" transform="translate(43.459548, 17.997560)" font-family="Kohinoor Devanagari" fill="#DAA520" sketch:type="MSTextLayer" font-weight="normal">
                <text id="व" font-size="69.2999039">
                    <tspan x="251.15851" y="73.55023" fill="#000000">व</tspan>
                </text>
                <text id="श" font-size="69.7056198">
                    <tspan x="483.95812" y="324.11316" fill="#000000">श</tspan>
                </text>
                <text id="ष" font-size="80.2951965">
                    <tspan x="245.93658" y="561.46307" fill="#000000">ष</tspan>
                </text>
                <text id="स" font-size="74.884613">
                    <tspan x="0.96426" y="328.937737" fill="#000000">स</tspan>
                </text>
            </g>
        </g>
    </g>
</svg>